<?xml version="1.0" encoding="UTF-8"?>
<svg id="Layer_1" data-name="Layer 1" xmlns="http://www.w3.org/2000/svg" viewBox="0 0 200 200">
  <defs>
    <style>
      .cls-1 {
        fill: #ffc500;
      }
    </style>
  </defs>
  <rect class="cls-1" width="200" height="200"/>
  <g>
    <path d="m55.37,83.46c.09-.62.15-1.24.28-1.85.75-3.51,2.85-5.9,6.12-7.29,2.09-.89,4.3-1.21,6.55-1.3,1.97-.08,3.93.03,5.86.47,2.47.56,4.71,1.56,6.46,3.46,1.38,1.51,2.2,3.29,2.48,5.31.13.9.17,1.81.18,2.72.02,3.4,0,6.81,0,10.21,0,.11,0,.23,0,.36h-11.06c0-.14,0-.26,0-.38,0-3.4,0-6.81,0-10.21,0-.78-.19-1.49-.73-2.08-.78-.86-1.94-1.14-3.03-.74-.99.36-1.67,1.34-1.72,2.47,0,.1,0,.2,0,.29,0,10.04,0,20.08,0,30.13,0,.86.2,1.63.83,2.24.78.76,1.73.94,2.74.6,1.07-.36,1.7-1.15,1.87-2.27.04-.24.03-.49.03-.73,0-3.32,0-6.65,0-9.97,0-.13,0-.25,0-.4h11.05c0,.05.02.11.02.16,0,2.73.01,5.46,0,8.18-.02,2.28-.91,4.12-2.72,5.55-2.98,2.36-5.92,4.77-8.88,7.16-.54.44-1.08.88-1.62,1.31-.09.07-.21.13-.31.13-1.45,0-2.9.05-4.34-.05-4.96-.37-9.08-3.91-9.89-8.9-.07-.41-.11-.83-.17-1.24,0-11.11,0-22.22,0-33.33Z"/>
    <path d="m116.98,74.07h27.65v10.28h-7.66v42.56c-.11,0-.18.02-.26.02-.94,0-1.88,0-2.82,0-.13,0-.29-.06-.39-.14-2.9-2.42-5.79-4.84-8.69-7.26-.18-.15-.19-.31-.19-.51,0-11.41,0-22.82,0-34.23v-.41h-7.64v-10.3Z"/>
    <path d="m102.63,100.94c-5.58,4.5-11.14,8.98-16.7,13.46-.02-.01-.03-.02-.05-.03.13-.59.26-1.18.39-1.76,2.01-8.99,4.02-17.99,6.03-26.98.84-3.75,1.68-7.51,2.52-11.26.04-.16.07-.25.27-.25,5.02,0,10.04,0,15.05,0,.05,0,.1,0,.17.02,3.24,13.79,6.49,27.57,9.75,41.44-5.85-4.9-11.63-9.75-17.44-14.63Zm.04-17.65s-.05,0-.07,0c-.98,5.02-1.96,10.03-2.95,15.06h5.95c-.98-5.04-1.96-10.05-2.93-15.06Z"/>
    <path d="m74.74,126.98c.56-.46,1.08-.88,1.6-1.3,3.47-2.8,6.93-5.61,10.4-8.41,5.22-4.22,10.45-8.44,15.67-12.67.17-.14.26-.15.44,0,3.75,3.15,7.5,6.3,11.26,9.44,4.67,3.91,9.34,7.82,14.01,11.73.46.39.92.78,1.43,1.21h-54.8Z"/>
  </g>
</svg>